<svg width="286" height="646" viewBox="0 0 286 646" fill="none" xmlns="http://www.w3.org/2000/svg">
<g clip-path="url(#clip0)">
<g opacity="0.7">
<path opacity="0.7" d="M284.59 297.63C284.67 273.265 278.837 249.244 267.59 227.63C262.25 217.48 257.38 211.17 253.59 207.3C252.161 205.784 250.294 204.753 248.25 204.349C246.207 203.946 244.088 204.191 242.19 205.05C240.673 205.585 239.303 206.469 238.19 207.63C233.12 212.88 228.54 219.82 224.54 227.21C212.708 249.329 206.566 274.045 206.67 299.13V314.19H197.01V139.19C197.01 102.51 188.8 66.32 172.72 34.19C165.1 18.98 158.15 9.53004 152.8 3.72004C151.504 2.24306 149.907 1.05969 148.117 0.248985C146.327 -0.561716 144.385 -0.981079 142.42 -0.981079C140.455 -0.981079 138.513 -0.561716 136.723 0.248985C134.932 1.05969 133.336 2.24306 132.04 3.72004C124.8 11.59 118.27 21.99 112.56 33.05C95.65 65.84 87.06 103.05 87.06 140.82V314.19H78.71V298.41C78.8136 273.325 72.6723 248.609 60.84 226.49C56.84 219.11 52.26 212.17 47.19 206.91C45.7307 205.373 43.8207 204.339 41.7357 203.958C39.6508 203.577 37.4987 203.868 35.59 204.79L35.94 204.98C34.7156 205.521 33.6083 206.296 32.68 207.26C28.93 211.13 24.06 217.44 18.68 227.59C7.43309 249.204 1.59949 273.225 1.67999 297.59V559.23H31.48L28.23 580.74V645.05H52.59V580.74L49.34 559.23H78.71V320.96H87.06V558.16H110.86L107.44 580.73V645.05H131.81V580.74L128.39 558.17H160.46L157.04 580.74V645.05H181.41V580.74L177.99 558.17H196.99V320.96H206.65V559.59H214.48V559.23H240.37L237.12 580.74V645.05H261.49V580.74L258.24 559.23H284.59V297.63Z" fill="url(#paint0_linear)"/>
</g>
<path d="M57.44 568.2H34.37L38.49 540.19H53.32L57.44 568.2Z" fill="#535461"/>
<g opacity="0.1">
<path opacity="0.1" d="M37.34 551.31H54.47L53.32 543.48H38.49L37.34 551.31Z" fill="black"/>
</g>
<path d="M255.2 568.2H232.13L236.25 540.19H251.08L255.2 568.2Z" fill="#535461"/>
<g opacity="0.1">
<path opacity="0.1" d="M235.1 551.31H252.23L251.08 543.48H236.25L235.1 551.31Z" fill="black"/>
</g>
<path d="M132.43 568.2H109.35L113.47 540.19H128.31L132.43 568.2Z" fill="#535461"/>
<g opacity="0.1">
<path opacity="0.1" d="M112.32 551.31H129.46L128.31 543.48H113.47L112.32 551.31Z" fill="black"/>
</g>
<path d="M179.39 568.2H156.32L160.44 540.19H175.27L179.39 568.2Z" fill="#535461"/>
<g opacity="0.1">
<path opacity="0.1" d="M159.29 551.31H176.43L175.27 543.48H160.44L159.29 551.31Z" fill="black"/>
</g>
<path d="M222.24 308.64H57.44V315.23H222.24V308.64Z" fill="#535461"/>
<path d="M247.72 204.51C246.849 203.549 245.787 202.78 244.601 202.255C243.415 201.729 242.132 201.457 240.835 201.457C239.538 201.457 238.255 201.729 237.069 202.255C235.883 202.78 234.821 203.549 233.95 204.51C229.15 209.62 224.82 216.38 221.03 223.57C209.815 245.192 204.012 269.212 204.12 293.57V547.26H277.05V292.52C277.142 268.83 271.621 245.456 260.94 224.31C255.88 214.43 251.27 208.28 247.72 204.51Z" fill="#E0E0E0"/>
<path d="M38.59 204.51C39.4609 203.549 40.5234 202.78 41.7092 202.255C42.895 201.729 44.1778 201.457 45.475 201.457C46.7722 201.457 48.0549 201.729 49.2407 202.255C50.4266 202.78 51.4891 203.549 52.36 204.51C57.16 209.62 61.49 216.38 65.28 223.57C76.4953 245.192 82.2979 269.212 82.19 293.57V547.26H9.23998V292.52C9.14833 268.83 14.669 245.456 25.35 224.31C30.4 214.43 35.01 208.28 38.59 204.51Z" fill="#E0E0E0"/>
<path d="M9.64999 297.93L26.95 298.01V319.35H9.64999V297.93Z" fill="#535461"/>
<path d="M64.86 297.93L82.16 298.01V319.35H64.86V297.93Z" fill="#535461"/>
<path d="M204.11 297.93L221.42 298.01V319.35H204.11V297.93Z" fill="#535461"/>
<path d="M259.32 297.93L276.63 298.01V319.35H259.32V297.93Z" fill="#535461"/>
<g opacity="0.1">
<path opacity="0.1" d="M65.25 223.24C61.47 216.05 57.13 209.29 52.33 204.18C50.9735 202.682 49.1643 201.669 47.1782 201.295C45.1921 200.921 43.1382 201.207 41.33 202.11C42.3719 202.63 43.3132 203.331 44.11 204.18C48.91 209.29 53.24 216.05 57.03 223.24C68.2453 244.862 74.0479 268.882 73.94 293.24V546.91H82.18V293.27C82.2866 268.901 76.477 244.869 65.25 223.24V223.24Z" fill="black"/>
</g>
<g opacity="0.1">
<path opacity="0.1" d="M227.59 223.94C231.37 216.75 235.71 209.99 240.51 204.88C241.409 203.913 242.494 203.137 243.7 202.6C241.917 201.819 239.934 201.619 238.032 202.029C236.129 202.438 234.404 203.435 233.1 204.88C228.3 209.99 223.97 216.75 220.18 223.94C208.965 245.562 203.162 269.582 203.27 293.94V547.61H210.69V293.98C210.573 269.61 216.372 245.575 227.59 223.94V223.94Z" fill="black"/>
</g>
<path d="M57.44 568.2H34.37V630.82H57.44V568.2Z" fill="url(#paint1_linear)"/>
<path d="M132.07 568H109V630.62H132.07V568Z" fill="url(#paint2_linear)"/>
<path d="M179.07 568H156V630.62H179.07V568Z" fill="url(#paint3_linear)"/>
<path d="M255.07 568H232V630.62H255.07V568Z" fill="url(#paint4_linear)"/>
<path d="M152.29 5.61C151.085 4.17753 149.581 3.02593 147.884 2.23589C146.186 1.44586 144.337 1.0365 142.465 1.0365C140.593 1.0365 138.744 1.44586 137.046 2.23589C135.349 3.02593 133.845 4.17753 132.64 5.61C125.79 13.27 119.64 23.4 114.2 34.18C98.2 66.12 90.06 102.37 90.06 139.13V546.22H194.15V137.49C194.15 101.77 186.38 66.49 171.15 35.28C163.94 20.47 157.36 11.27 152.29 5.61Z" fill="#EEEEEE"/>
<path d="M157.54 50.83H125.23C119.155 50.83 114.23 55.7548 114.23 61.83V64.72C114.23 70.7951 119.155 75.72 125.23 75.72H157.54C163.615 75.72 168.54 70.7951 168.54 64.72V61.83C168.54 55.7548 163.615 50.83 157.54 50.83Z" fill="#6C63FF"/>
<g opacity="0.1">
<path opacity="0.1" d="M193.59 153.05H90.59V157.05H193.59V153.05Z" fill="black"/>
</g>
</g>
<defs>
<linearGradient id="paint0_linear" x1="143.14" y1="645.05" x2="143.14" y2="-0.949967" gradientUnits="userSpaceOnUse">
<stop stop-color="#808080" stop-opacity="0.25"/>
<stop offset="0.54" stop-color="#808080" stop-opacity="0.12"/>
<stop offset="1" stop-color="#808080" stop-opacity="0.1"/>
</linearGradient>
<linearGradient id="paint1_linear" x1="45.9" y1="568.2" x2="45.9" y2="630.83" gradientUnits="userSpaceOnUse">
<stop stop-color="#E0E0E0"/>
<stop offset="0.31" stop-color="#FCCC63"/>
<stop offset="0.77" stop-color="#F55F44"/>
</linearGradient>
<linearGradient id="paint2_linear" x1="120.53" y1="568" x2="120.53" y2="630.63" gradientUnits="userSpaceOnUse">
<stop stop-color="#E0E0E0"/>
<stop offset="0.31" stop-color="#FCCC63"/>
<stop offset="0.77" stop-color="#F55F44"/>
</linearGradient>
<linearGradient id="paint3_linear" x1="167.53" y1="568" x2="167.53" y2="630.63" gradientUnits="userSpaceOnUse">
<stop stop-color="#E0E0E0"/>
<stop offset="0.31" stop-color="#FCCC63"/>
<stop offset="0.77" stop-color="#F55F44"/>
</linearGradient>
<linearGradient id="paint4_linear" x1="243.53" y1="568" x2="243.53" y2="630.63" gradientUnits="userSpaceOnUse">
<stop stop-color="#E0E0E0"/>
<stop offset="0.31" stop-color="#FCCC63"/>
<stop offset="0.77" stop-color="#F55F44"/>
</linearGradient>
<clipPath id="clip0">
<rect width="286" height="646" fill="white"/>
</clipPath>
</defs>
</svg>
